<?xml version="1.0" encoding="UTF-8"?>
<svg id="Layer_1" data-name="Layer 1" xmlns="http://www.w3.org/2000/svg" version="1.1" viewBox="0 0 992.13 740.33">
  <defs>
    <style>
      .cls-1 {
        fill: #000;
        stroke-width: 0px;
      }
    </style>
  </defs>
  <path class="cls-1" d="M798.57,393.63c-8.21,3.95-16.16,8.58-24.68,11.68-14.18,5.17-28.57,9.98-43.18,13.72-8.27,2.11-10.08,6.17-10.03,14.02.3,55.79-.09,111.59.36,167.38.09,11.63-3.78,17.65-15.09,21.35-66.21,21.68-132.15,44.18-198.36,65.84-6.15,2.01-14.25,2.01-20.29-.2-58.4-21.41-116.49-43.68-174.85-65.2-10.74-3.96-15.26-9.41-15.12-21.42.64-53.56-.06-107.13.56-160.68.12-10.51-3.29-14.7-13.03-17.36-15.81-4.31-31.22-10.11-46.75-15.46-15.37-5.29-17.14-10.29-8.61-24.62,13.6-22.86,27.35-45.63,41.63-69.44-22.23-21.96-44.2-43.48-65.95-65.23-14.05-14.05-12.33-20.91,6.33-26.76,58.92-18.47,117.9-36.75,176.69-55.62,5.63-1.81,12.1-6.07,14.82-11.03,19.67-35.92,48.41-58.58,89.54-64.38,1.17-.17,2.21-1.3,3.31-1.98,8.93,0,17.86,0,26.79,0,.64.58,1.22,1.57,1.93,1.68,45.77,6.93,76.54,32.58,94.63,74.75,1.71,3.98,6.98,7.67,11.37,9.06,50.69,16.11,101.57,31.64,152.28,47.68,5.6,1.77,10.49,5.81,15.71,8.8,0,2.68,0,5.36,0,8.04-24.84,23.8-49.68,47.61-76.61,73.41,27.5,26.54,52.05,50.23,76.61,73.93,0,2.68,0,5.36,0,8.04ZM509.73,661.51c2.2,0,3.16.23,3.95-.03,58.53-19.48,116.98-39.21,175.65-58.26,8.33-2.7,8.29-7.66,8.28-14.11-.07-46.82-.03-93.64-.03-140.46,0-5.66,0-11.33,0-18.35-5.63,1.5-9.46,2.35-13.19,3.53-36.4,11.46-72.91,22.57-109.1,34.66-13.58,4.54-23.27,3.44-31.95-9.35-9.57-14.13-21.17-26.88-33.61-42.38v244.76ZM319.7,434.82c0,54.86-.22,106.59.45,158.32.05,3.81,5.8,9.36,10.1,11.02,47.24,18.23,94.7,35.87,142.12,53.62,3.87,1.45,7.87,2.53,12.28,3.93v-235.59c-9.58,15.71-17.74,28.77-25.55,42.03-4.54,7.71-9.9,10.19-18.82,6.69-12.38-4.85-25.28-8.36-37.92-12.55-26.82-8.88-53.62-17.81-82.67-27.47ZM603.06,206.87c.01-53.66-41.31-95.32-94.46-95.24-51.23.08-94.16,42.71-94.03,93.38.14,53.41,41.78,95.15,94.82,95.04,52.11-.11,93.65-41.44,93.66-93.17ZM766.36,383.89c-18.71-18.23-35.82-34.43-52.31-51.23-5.81-5.92-10.72-7.04-18.74-4.25-36.93,12.84-74.17,24.81-111.27,37.17-22.13,7.37-44.21,14.88-67.46,22.71,15.12,18.97,28.7,36.66,43.22,53.54,2.38,2.77,9.41,3.77,13.4,2.57,38.29-11.47,76.41-23.54,114.54-35.53,25.21-7.93,50.38-16,78.62-24.98ZM254.02,386.56c1.3,1.37,1.79,2.36,2.53,2.61,59.76,20.14,119.51,40.3,179.39,60.06,2.61.86,8.03-1.04,9.49-3.34,11.66-18.4,22.67-37.21,34.52-56.95-61.88-20.73-122.84-41.23-183.93-61.35-2.33-.77-7.24,1.22-8.59,3.39-11.49,18.41-22.43,37.16-33.4,55.58ZM323.64,311.27c3.15,1.83,4.22,2.72,5.45,3.13,53.85,18.05,107.68,36.19,161.67,53.83,4.57,1.49,10.59.53,15.38-1.01,32.11-10.32,64.07-21.09,96.06-31.75,22.32-7.43,44.61-14.92,70.4-23.55-26.5-8.93-49.1-16.84-71.94-23.91-3.16-.98-8.51,1.1-11.31,3.53-51.19,44.54-117.04,42.51-165.67-5.04-2.88-2.82-8.86-5.38-12.23-4.33-28.76,8.99-57.25,18.84-87.81,29.1ZM388.5,189.79c-51.19,15.96-104.27,32.51-157.4,49.08.62,1.93.64,2.99,1.17,3.54,10.92,11.13,23.27,21.16,32.56,33.51,15.05,20.01,31.01,23.68,54.34,13.48,27.39-11.97,56.61-19.74,82.34-28.42-4.44-24.28-8.53-46.69-13.01-71.18ZM612.85,267.69c28.18,9.47,57.52,19.47,86.99,29.03,2.81.91,7.63.28,9.62-1.62,18.56-17.73,36.71-35.89,56.48-55.41-47.81-14.71-92.81-28.55-136.16-41.88-5.81,23.98-11.18,46.16-16.93,69.89Z"/>
  <path class="cls-1" d="M451.76,623.15c-5.53-1.74-8.51-2.53-11.39-3.6-19.94-7.37-39.87-14.78-59.79-22.21-7.46-2.78-14.76-6.33-11.25-16.11,3.36-9.38,10.47-8.78,18.58-5.6,21.43,8.4,43.23,15.86,64.42,24.81,3.99,1.69,7.81,8.4,8,12.95.14,3.31-5.84,6.87-8.56,9.77Z"/>
  <path class="cls-1" d="M423.46,538.77c12.11,4.74,23.07,8.2,33.07,13.48,2.8,1.48,4.76,9.07,3.47,12.48-1.27,3.36-7.8,7.64-10.89,6.88-10.61-2.58-21.08-6.49-30.81-11.45-3.01-1.53-5.41-8.48-4.57-12.13.82-3.56,6.15-6.08,9.74-9.26Z"/>
  <path class="cls-1" d="M496.26,226.51c20.28-20.54,38.43-38.95,56.63-57.31,2.5-2.53,5-6.53,7.87-6.89,5.08-.62,11.7-.53,15.22,2.3,2.23,1.8,2.03,11.01-.49,13.64-22.78,23.86-46.03,47.3-69.99,69.98-3.02,2.86-12.52,2.9-16.18.28-8.59-6.13-16.41-13.98-22.57-22.55-2.62-3.64-.31-10.83-.24-16.4,5.18.11,11.49-1.59,15.26.77,5.42,3.39,8.98,9.74,14.5,16.18Z"/>
  <circle class="cls-1" cx="379.97" cy="532.71" r="12.99"/>
</svg>